<?xml version="1.0" standalone="no"?>
<!DOCTYPE svg PUBLIC "-//W3C//DTD SVG 20010904//EN"
 "http://www.w3.org/TR/2001/REC-SVG-20010904/DTD/svg10.dtd">

<!-- Icon created by bgtti. Github: https://github.com/bgtti -->
<!-- License: public domain -->

<svg 
    version="1.0" 
    xmlns="http://www.w3.org/2000/svg"
    width="468.000000pt" 
    height="468.000000pt" 
    viewBox="0 0 468.000000 468.000000"
    preserveAspectRatio="xMidYMid meet">

    <g 
        transform="translate(0.000000,468.000000) scale(0.100000,-0.100000)"
        fill="#000000" 
        stroke="none">

        <!-- Background color/shape of the entire icon -->
        <!-- Uncomment the path bellow and adjust the element's fill color to change the whole element's background -->
        <!-- <path 
            d="M2160 4646 c-189 -26 -320 -67 -485 -149 -209 -104 -411 -282 -546
            -479 -52 -76 -135 -238 -156 -304 l-16 -53 -286 -3 -286 -3 -57 -28 c-77 -38
            -134 -96 -171 -175 l-32 -67 -3 -1515 c-3 -1682 -7 -1572 64 -1677 42 -61 83
            -94 162 -131 l57 -27 1875 -3 c1341 -2 1894 0 1940 8 127 22 220 93 278 210
            l27 55 0 1545 0 1545 -29 59 c-37 76 -101 140 -174 174 -56 27 -60 27 -307 30
            -137 1 -260 4 -271 7 -13 3 -24 16 -29 32 -3 15 -28 72 -54 127 -198 419 -584
            718 -1038 806 -137 27 -337 33 -463 16z"
            fill="#b3b3b3"
        /> -->

        <!-- Background color/shape of the circle -->
        <!-- Uncomment the path bellow and adjust the element's fill color to change the circle's background -->
        <!-- <path 
            d="
            M 320, 0
            m 3400, 3200
            a 1400,1300 0 1,0 -2800,0
            a 1400,1300 0 1,0  2800,0
            "
            fill="#D4B20B"
        /> -->
        
        <!-- Main icon body: -->
        <path 
            d="M2160 4646 c-189 -26 -320 -67 -485 -149 -209 -104 -411 -282 -546
            -479 -52 -76 -135 -238 -156 -304 l-16 -53 -286 -3 -286 -3 -57 -28 c-77 -38
            -134 -96 -171 -175 l-32 -67 -3 -1515 c-3 -1682 -7 -1572 64 -1677 42 -61 83
            -94 162 -131 l57 -27 1875 -3 c1341 -2 1894 0 1940 8 127 22 220 93 278 210
            l27 55 0 1545 0 1545 -29 59 c-37 76 -101 140 -174 174 -56 27 -60 27 -307 30
            -137 1 -260 4 -271 7 -13 3 -24 16 -29 32 -3 15 -28 72 -54 127 -198 419 -584
            718 -1038 806 -137 27 -337 33 -463 16z m386 -221 c260 -45 516 -176 687 -351
            368 -379 452 -939 209 -1408 -209 -406 -629 -656 -1102 -656 -204 0 -377 41
            -565 133 -611 301 -851 1034 -537 1641 174 338 497 571 887 640 108 19 312 20
            421 1z m-1661 -1195 c0 -132 -3 -176 -11 -167 -36 39 -284 338 -284 342 0 3
            66 5 148 5 l147 0 0 -180z m3225 174 c0 -7 -284 -347 -303 -362 -9 -8 -12 30
            -10 176 1 103 2 188 3 190 0 5 310 2 310 -4z m-3394 -464 c187 -223 357 -434
            378 -470 62 -102 212 -280 266 -315 17 -11 120 -126 229 -255 l198 -236 -718
            -664 c-394 -365 -722 -666 -728 -668 -6 -2 -15 8 -21 23 -7 18 -9 521 -8 1509
            3 1262 5 1485 17 1500 18 21 -25 69 387 -424z m3623 -1083 c-1 -810 -4 -1483
            -8 -1496 -4 -14 -11 -26 -16 -28 -9 -3 -1416 1280 -1423 1297 -4 9 424 519
            490 584 61 60 142 157 175 209 14 22 84 110 157 196 73 86 239 283 370 439
            130 155 241 280 247 277 5 -4 9 -568 8 -1478z m-1745 -264 c-119 -142 -222
            -265 -230 -272 -16 -17 12 -47 -268 287 -103 123 -186 225 -184 227 2 2 30 -3
            63 -11 252 -60 513 -58 740 5 39 10 76 19 82 20 7 1 -84 -115 -203 -256z
            m-506 -286 c214 -255 216 -257 258 -257 48 0 75 16 109 63 45 63 297 362 305
            362 9 0 1344 -1224 1348 -1236 2 -5 -724 -9 -1783 -9 -1064 0 -1785 4 -1783 9
            4 11 1360 1270 1369 1270 3 1 83 -90 177 -202z"
        />

        <!-- Bell icon (top): -->
        <path 
            d="M2272 4123 c-46 -23 -64 -54 -71 -125 l-6 -60 -63 -23 c-152 -55
            -255 -167 -324 -352 -20 -54 -22 -81 -26 -369 l-3 -311 -95 -94 -94 -94 0 -52
            0 -53 745 0 745 0 0 53 0 52 -94 94 -95 94 -3 311 c-3 297 -4 314 -27 376 -64
            178 -168 289 -322 345 l-64 23 -5 59 c-6 70 -29 109 -75 129 -45 18 -82 17
            -123 -3z"
            fill="#000000"
        />

        <!-- Bell icon (bottom): -->
        <path 
            d="M2150 2483 c1 -32 37 -98 68 -125 67 -56 153 -60 224 -11 39 26 78
            93 78 131 0 22 -1 22 -185 22 -170 0 -185 -1 -185 -17z"
            fill="#000000"
        />

    </g>
</svg>
